# xmcd
#
# Track frame offsets: 
#        150
#        5819
#        21560
#        30702
#        42126
#        49803
#        73773
#        85499
#        89878
#        100258
#        108580
#        118532
#        135577
#        147324
#
# Disc length: 2149 seconds
#
# Revision: 0
# Processed by: cddbd v1.5.2PL0 Copyright (c) Steve Scherf et al.
# Submitted via: ExactAudioCopyFreeDBPlugin 1.0
#
DISCID=ce08630e
DTITLE=Various Artist - O Brother, Where Art Thou (2011 Mercury Records Audio
DTITLE=phile Deluxe Edition) [CD2]
DYEAR=2000
DGENRE=Folk
TTITLE0=Colin Linden - Hard Time Killing Floor Blues
TTITLE1=Alan O'Bryant - You Are My Sunshine
TTITLE2=John Hartford - Tishomingo Blues
TTITLE3=The Kossoy Sisters and Erik Darling - I'll Fly Away
TTITLE4=Van Dyke Parks - Big Rock Candy Mountain
TTITLE5=Ed Lewis and The Prisoners - Tom Devil
TTITLE6=The Cox Family - Keep On the Sunny Side
TTITLE7=Sarah Peasall, Hannah Peasall, Leah Peasall and Robert Hamlett /
TTITLE7=Angel Band
TTITLE8=Norman Blake - Big Rock Candy Mountain
TTITLE9=Norman Blake - Little Sadie
TTITLE10=The Cox Family - In the Highways
TTITLE11=John Hartford - Hogfoot
TTITLE12=The Fairfield Four - The Lord Will Make a Way
TTITLE13=Harley Allen - In the Jailhouse Now
EXTD=
EXTT0=
EXTT1=
EXTT2=
EXTT3=
EXTT4=
EXTT5=
EXTT6=
EXTT7=
EXTT8=
EXTT9=
EXTT10=
EXTT11=
EXTT12=
EXTT13=
PLAYORDER=
